<svg width="129" height="96" viewBox="0 0 129 96" fill="none" xmlns="http://www.w3.org/2000/svg">
<path fill-rule="evenodd" clip-rule="evenodd" d="M49.5681 83.7348C48.0725 82.4483 48.0808 80.1751 49.4757 78.7801C50.8707 77.3851 53.1231 77.3989 54.6356 78.6656C59.8295 83.0152 66.0482 86.0047 72.7299 87.3338C74.0307 87.5925 75.3393 87.7864 76.6512 87.9159V84.0931C76.6512 82.0381 78.3171 80.3721 80.3721 80.3721C82.4271 80.3721 84.093 82.0381 84.093 84.0931V87.9631C88.2067 87.6097 92.2644 86.6272 96.1204 85.03C99.8398 83.4894 103.288 81.4116 106.362 78.88L103.5 76.0185C102.047 74.5653 102.047 72.2094 103.5 70.7563C104.953 69.3032 107.309 69.3032 108.763 70.7563L111.648 73.6414C112.588 72.5199 113.47 71.3446 114.289 70.1195C118.045 64.4979 120.323 58.0424 120.94 51.3489H116.837C114.782 51.3489 113.116 49.683 113.116 47.628C113.116 45.5729 114.782 43.907 116.837 43.907H120.94C120.323 37.2135 118.045 30.758 114.289 25.1364C113.393 23.7954 112.421 22.514 111.379 21.2975L108.488 24.1891C107.035 25.6422 104.679 25.6422 103.225 24.1891C101.772 22.736 101.772 20.38 103.225 18.9269L106.039 16.113C103.047 13.7002 99.7103 11.7128 96.1204 10.2258C92.2644 8.62865 88.2067 7.64618 84.093 7.29277V11.1628C84.093 13.2178 82.4271 14.8838 80.3721 14.8838C78.3171 14.8838 76.6512 13.2178 76.6512 11.1628V7.33997C75.3393 7.46946 74.0307 7.66335 72.7299 7.92209C66.0482 9.25117 59.8295 12.2407 54.6356 16.5903C53.1231 17.8569 50.8707 17.8708 49.4757 16.4758C48.0808 15.0808 48.0725 12.8076 49.5681 11.521C55.7739 6.18264 63.2681 2.52001 71.3362 0.915178C74.2941 0.326817 77.2865 0.0234997 80.2739 0.00131342C80.3065 0.000467817 80.3393 4.24108e-05 80.3721 4.24108e-05C80.3901 4.24108e-05 80.4081 0.000170636 80.4261 0.000426225C86.7185 -0.026195 92.9851 1.19435 98.8543 3.62548C107.557 7.23032 114.996 13.3349 120.229 21.1673C125.462 28.9996 128.256 38.208 128.256 47.6279C128.256 57.0478 125.462 66.2562 120.229 74.0886C114.996 81.9209 107.557 88.0255 98.8543 91.6304C92.9858 94.0612 86.72 95.2818 80.4284 95.2554C80.4096 95.2557 80.3909 95.2559 80.3721 95.2559C80.3385 95.2559 80.305 95.2554 80.2716 95.2545C77.285 95.2322 74.2933 94.9289 71.3362 94.3407C63.2681 92.7358 55.7739 89.0732 49.5681 83.7348ZM80.3721 58.7907C86.5371 58.7907 91.5349 53.793 91.5349 47.628C91.5349 45.6455 91.0181 43.7837 90.1119 42.17C90.2463 42.0681 90.3753 41.9558 90.4979 41.8332L98.3912 33.9399C99.8443 32.4868 99.8443 30.1308 98.3912 28.6777C96.9381 27.2246 94.5821 27.2246 93.129 28.6777L85.2357 36.571C85.007 36.7997 84.8142 37.0509 84.6575 37.3174C83.338 36.7683 81.8904 36.4652 80.3721 36.4652C74.2071 36.4652 69.2093 41.4629 69.2093 47.628C69.2093 49.31 69.5813 50.9052 70.2476 52.3357C70.1409 52.4211 70.0379 52.5132 69.939 52.6121L67.3079 55.2432C65.8548 56.6963 65.8548 59.0523 67.3079 60.5054C68.761 61.9585 71.117 61.9585 72.5701 60.5054L75.2012 57.8743C75.2784 57.7971 75.3515 57.7173 75.4206 57.6352C76.9127 58.3749 78.5938 58.7907 80.3721 58.7907ZM80.3721 54.3256C76.6731 54.3256 73.6744 51.327 73.6744 47.628C73.6744 43.9289 76.6731 40.9303 80.3721 40.9303C84.0711 40.9303 87.0698 43.9289 87.0698 47.628C87.0698 51.327 84.0711 54.3256 80.3721 54.3256ZM32 20.3487C29.945 20.3487 28.2791 22.0146 28.2791 24.0696C28.2791 26.1246 29.945 27.7905 32 27.7905H54.3256C56.3806 27.7905 58.0465 26.1246 58.0465 24.0696C58.0465 22.0146 56.3806 20.3487 54.3256 20.3487H32ZM28.2791 71.6975C28.2791 69.6425 29.945 67.9766 32 67.9766H54.3256C56.3806 67.9766 58.0465 69.6425 58.0465 71.6975C58.0465 73.7525 56.3806 75.4184 54.3256 75.4184H32C29.945 75.4184 28.2791 73.7525 28.2791 71.6975ZM16.3721 32.2559C14.3171 32.2559 12.6512 33.9218 12.6512 35.9768C12.6512 38.0318 14.3171 39.6977 16.3721 39.6977H49.8605C51.9155 39.6977 53.5814 38.0318 53.5814 35.9768C53.5814 33.9218 51.9155 32.2559 49.8605 32.2559H16.3721ZM12.6512 59.7908C12.6512 57.7358 14.3171 56.0698 16.3721 56.0698H49.8605C51.9155 56.0698 53.5814 57.7358 53.5814 59.7908C53.5814 61.8458 51.9155 63.5117 49.8605 63.5117H16.3721C14.3171 63.5117 12.6512 61.8458 12.6512 59.7908ZM3.72093 44.1626C1.66592 44.1626 0 45.8285 0 47.8836C0 49.9386 1.66592 51.6045 3.72093 51.6045H48.3721C50.4271 51.6045 52.093 49.9386 52.093 47.8836C52.093 45.8285 50.4271 44.1626 48.3721 44.1626H3.72093Z" fill="#F01933"/>
</svg>
