<svg width="128" height="65" viewBox="0 0 128 65" fill="none" xmlns="http://www.w3.org/2000/svg">
<path fill-rule="evenodd" clip-rule="evenodd" d="M123.354 64C126.012 64 128.186 61.8422 127.986 59.1918C126.837 43.9765 120.265 29.6091 109.373 18.7452C97.3388 6.74284 81.0175 0 63.9992 0C46.9809 0 30.6596 6.74283 18.6259 18.7452C7.73352 29.609 1.16153 43.9765 0.0127965 59.1918C-0.187303 61.8422 1.98626 64 4.64416 64C7.30207 64 9.43455 61.8408 9.66992 59.1933C10.7959 46.5275 16.3453 34.5962 25.4319 25.5334C35.6606 15.3314 49.5336 9.6 63.9992 9.6C78.4648 9.6 92.3379 15.3314 102.567 25.5334C111.653 34.5962 117.202 46.5275 118.328 59.1933C118.564 61.8408 120.696 64 123.354 64ZM104.605 65C107.097 65 109.141 62.9749 108.891 60.4956C107.854 50.2152 103.292 40.5509 95.9023 33.1802C87.4411 24.7411 75.9652 20 63.9992 20C52.0332 20 40.5573 24.7411 32.0961 33.1802C24.7061 40.5509 20.1444 50.2152 19.1078 60.4956C18.8578 62.9748 20.9013 65 23.3931 65C25.8849 65 27.8757 62.9721 28.1879 60.4999C29.1842 52.6114 32.78 45.226 38.4767 39.5442C45.2457 32.7928 54.4264 29 63.9992 29C73.572 29 82.7527 32.7928 89.5217 39.5442C95.2184 45.226 98.8142 52.6114 99.8105 60.4999C100.123 62.9721 102.113 65 104.605 65ZM88.6799 60.636C89.1039 63.0212 87.1008 65 84.6782 65C82.2556 65 80.3495 63.0012 79.7019 60.6668C78.9576 57.9841 77.5278 55.5123 75.5198 53.5095C72.4643 50.462 68.3203 48.75 63.9992 48.75C59.6782 48.75 55.5341 50.462 52.4786 53.5095C50.4706 55.5123 49.0408 57.9841 48.2966 60.6668C47.6489 63.0012 45.7428 65 43.3202 65C40.8976 65 38.8945 63.0212 39.3185 60.636C40.2089 55.6263 42.619 50.969 46.2752 47.3223C50.9759 42.6339 57.3514 40 63.9992 40C70.647 40 77.0225 42.6339 81.7232 47.3223C85.3794 50.969 87.7895 55.6263 88.6799 60.636Z" fill="#F01933"/>
</svg>
