<svg width="128" height="65" viewBox="0 0 128 65" fill="none" xmlns="http://www.w3.org/2000/svg">
<path fill-rule="evenodd" clip-rule="evenodd" d="M123.354 64C126.012 64 128.186 61.8422 127.986 59.1918C126.837 43.9765 120.265 29.6091 109.373 18.7452C97.3388 6.74284 81.0175 0 63.9992 0C46.9809 0 30.6596 6.74283 18.6259 18.7452C7.73352 29.609 1.16153 43.9765 0.0127965 59.1918C-0.187303 61.8422 1.98626 64 4.64416 64C7.30207 64 9.43455 61.8408 9.66992 59.1933C10.7959 46.5275 16.3453 34.5962 25.4319 25.5334C35.6606 15.3314 49.5336 9.6 63.9992 9.6C78.4648 9.6 92.3379 15.3314 102.567 25.5334C111.653 34.5962 117.202 46.5275 118.328 59.1933C118.564 61.8408 120.696 64 123.354 64ZM104.724 65C107.216 65 109.259 62.9749 109.009 60.4956C107.973 50.2152 103.411 40.5509 96.021 33.1802C87.5598 24.7411 76.0838 20 64.1179 20C52.1519 20 40.676 24.7411 32.2147 33.1802C24.8247 40.5509 20.2631 50.2152 19.2265 60.4956C18.9765 62.9748 21.02 65 23.5118 65C26.0036 65 27.9943 62.9721 28.3065 60.4999C29.3028 52.6114 32.8987 45.226 38.5953 39.5442C45.3643 32.7928 54.5451 29 64.1179 29C73.6907 29 82.8714 32.7928 89.6404 39.5442C95.337 45.226 98.9329 52.6114 99.9292 60.4999C100.241 62.9721 102.232 65 104.724 65ZM88.6799 60.636C89.1039 63.0212 87.1008 65 84.6782 65C82.2556 65 80.3495 63.0012 79.7019 60.6668C78.9576 57.9841 77.5278 55.5123 75.5198 53.5095C72.4643 50.4621 68.3203 48.75 63.9992 48.75C59.6782 48.75 55.5341 50.462 52.4786 53.5095C50.4706 55.5123 49.0408 57.9841 48.2966 60.6668C47.6489 63.0012 45.7428 65 43.3202 65C40.8976 65 38.8945 63.0212 39.3185 60.636C40.2089 55.6263 42.619 50.969 46.2752 47.3223C50.9759 42.6339 57.3514 40 63.9992 40C70.647 40 77.0225 42.6339 81.7232 47.3223C85.3794 50.969 87.7895 55.6263 88.6799 60.636Z" fill="#F0A119"/>
</svg>
