<svg width="85" height="102" viewBox="0 0 85 102" fill="none" xmlns="http://www.w3.org/2000/svg">
<path fill-rule="evenodd" clip-rule="evenodd" d="M52.1742 60.8026C64.5492 56.6602 73.4671 44.974 73.4671 31.2049C73.4671 13.9709 59.4962 0 42.2622 0C25.0282 0 11.0573 13.9709 11.0573 31.2049C11.0573 44.974 19.9752 56.6602 32.3502 60.8026C30.2037 61.3191 28.0959 62.0037 26.0468 62.8525C20.9059 64.9819 16.2347 68.1031 12.3 72.0378C8.36532 75.9725 5.24415 80.6436 3.11471 85.7845C1.39131 89.9452 0.34481 94.3476 0.00837409 98.825C-0.123139 100.575 1.31208 102 3.06723 102C4.82237 102 6.23065 100.574 6.38531 98.8261C6.7075 95.1841 7.58295 91.6061 8.98683 88.2169C10.7969 83.8471 13.4499 79.8766 16.7943 76.5321C20.1388 73.1876 24.1093 70.5346 28.4791 68.7246C32.8489 66.9146 37.5324 65.983 42.2622 65.983C46.9921 65.983 51.6756 66.9146 56.0453 68.7246C60.4151 70.5346 64.3856 73.1876 67.7301 76.5321C71.0746 79.8766 73.7276 83.8471 75.5376 88.2169C76.9415 91.6062 77.8169 95.1842 78.1391 98.8261C78.2938 100.574 79.7021 102 81.4572 102C83.2123 102 84.6476 100.575 84.5161 98.825C84.1796 94.3476 83.1331 89.9452 81.4097 85.7846C79.2803 80.6436 76.1591 75.9725 72.2244 72.0378C68.2897 68.1031 63.6186 64.9819 58.4777 62.8525C56.4285 62.0037 54.3207 61.3191 52.1742 60.8026ZM42.2622 56.1688C28.475 56.1688 17.2983 44.9921 17.2983 31.2049C17.2983 17.4177 28.475 6.24098 42.2622 6.24098C56.0494 6.24098 67.2261 17.4177 67.2261 31.2049C67.2261 44.9921 56.0494 56.1688 42.2622 56.1688Z" fill="#F0A119"/>
</svg>
